<?xml version="1.0" encoding="UTF-8"?>
<svg id="Layer_2" data-name="Layer 2" xmlns="http://www.w3.org/2000/svg" viewBox="0 0 718.46 274.229">
  <g id="Calque_1" data-name="Calque 1">
    <g>
      <path d="M225.1151,200.5381c23.9202,8.61,48.3201,14.28,73.0801,17.68v30.92c-50.9099-2.98-101.3701-9.75-150.99-22.44-36.4302-9.32-71.9302-21.15-104.05-41.35-12.3301-7.7599-23.52-16.91-32.23-28.81-14.52-19.82-14.5901-42.35-.0701-62.11,12.5701-17.12,29.8-28.44,48.2-38.11,32.8401-17.28,68.0901-27.75,104.0601-36.03,29.8899-6.88,60.1599-11.68,90.6501-14.83C289.3951,1.7781,325.1251-.5119,355.2252,.0981c63.71-.28,121.23,4.39,178.1899,15.12,40.04,7.55,79.3201,17.84,116.4399,35.0601,21.28,9.87,41.46,21.5,56.9399,39.71,4.8201,5.67,8.6301,11.67,11.1101,18.01h-140.8c-1.74-4.93-4.3-9.79-7.6699-14.5-4.29-5.99-9.3-11.33-15.01-15.99-21.72-17.69-46.97-28.24-73.52-36.02-29.6899-8.7-60.04-13.36-90.9199-15.15-33.05-1.91-65.9001-.61-98.5901,4.54-30.3901,4.8-59.99,12.45-87.8901,25.75-17.8899,8.52-34.5398,18.83-47.0798,34.63-9.28,11.71-14.0601,24.82-11.6899,39.98,1.8499,11.78,7.5198,21.64,15.5398,30.18,17.9202,19.1,40.6702,30.42,64.8401,39.12Z"/>
      <path d="M718.46,140.9961c-4.85,14.46-15.1599,25.2401-27.01,34.6801-21.1399,16.8199-45.4399,27.7-70.6,36.78-41.71,15.06-84.91,23.88-128.72,29.93-23.7999,3.29-47.65,5.57-71.5399,6.96v-30.57c34.5798-4.46,68.24-12.38,99.96-27.39,13.4199-6.35,25.1499-12.6,35.08-21.39h-142.24v102.46c-30.53,2.16-61.14,2.28-91.76,.72-5.42-.27-10.83-.59-16.24-.9901v-102.19h-126.6901c-4.8799-3.52-10.95-8.7-16.6899-16.0099-3.62-4.62-6.3301-9.08-8.36-12.9901H718.46Z"/>
    </g>
  </g>
</svg>